<svg width="25" height="25" viewBox="0 0 25 25" fill="none" xmlns="http://www.w3.org/2000/svg">
<path d="M12.4999 2.08372C11.132 2.08372 9.77744 2.35315 8.51363 2.87664C7.24982 3.40012 6.1015 4.16741 5.13422 5.13469C3.18072 7.08819 2.08325 9.73771 2.08325 12.5004C2.08325 15.2631 3.18072 17.9126 5.13422 19.8661C6.1015 20.8334 7.24982 21.6006 8.51363 22.1241C9.77744 22.6476 11.132 22.917 12.4999 22.917C15.2626 22.917 17.9121 21.8196 19.8656 19.8661C21.8191 17.9126 22.9166 15.2631 22.9166 12.5004C22.9166 11.1324 22.6472 9.7779 22.1237 8.5141C21.6002 7.25029 20.8329 6.10196 19.8656 5.13469C18.8983 4.16741 17.75 3.40012 16.4862 2.87664C15.2224 2.35315 13.8679 2.08372 12.4999 2.08372ZM7.3645 19.042C7.81242 18.1045 10.5416 17.1879 12.4999 17.1879C14.4583 17.1879 17.1874 18.1045 17.6353 19.042C16.2187 20.167 14.4374 20.8337 12.4999 20.8337C10.5624 20.8337 8.78117 20.167 7.3645 19.042ZM19.1249 17.5316C17.6353 15.7191 14.0208 15.1045 12.4999 15.1045C10.9791 15.1045 7.3645 15.7191 5.87492 17.5316C4.81242 16.1462 4.16659 14.3962 4.16659 12.5004C4.16659 7.90663 7.90617 4.16705 12.4999 4.16705C17.0937 4.16705 20.8333 7.90663 20.8333 12.5004C20.8333 14.3962 20.1874 16.1462 19.1249 17.5316ZM12.4999 6.25038C10.4791 6.25038 8.85408 7.87538 8.85408 9.89621C8.85408 11.917 10.4791 13.542 12.4999 13.542C14.5208 13.542 16.1458 11.917 16.1458 9.89621C16.1458 7.87538 14.5208 6.25038 12.4999 6.25038ZM12.4999 11.4587C12.0855 11.4587 11.6881 11.2941 11.3951 11.0011C11.102 10.708 10.9374 10.3106 10.9374 9.89621C10.9374 9.48181 11.102 9.08439 11.3951 8.79136C11.6881 8.49833 12.0855 8.33372 12.4999 8.33372C12.9143 8.33372 13.3117 8.49833 13.6048 8.79136C13.8978 9.08439 14.0624 9.48181 14.0624 9.89621C14.0624 10.3106 13.8978 10.708 13.6048 11.0011C13.3117 11.2941 12.9143 11.4587 12.4999 11.4587Z" fill="white" fill-opacity="0.95"/>
</svg>
