<svg width="39" height="39" viewBox="0 0 39 39" fill="none" xmlns="http://www.w3.org/2000/svg">
<path d="M34.965 27.972V12.2378H10.4895V27.972H34.965ZM34.965 3.4965C36.8881 3.4965 38.4615 5.06993 38.4615 6.99301V27.972C38.4615 29.8951 36.8881 31.4685 34.965 31.4685H10.4895C8.54895 31.4685 6.99301 29.8951 6.99301 27.972V6.99301C6.99301 5.06993 8.56643 3.4965 10.4895 3.4965H12.2378V0H15.7343V3.4965H29.7203V0H33.2168V3.4965H34.965ZM3.4965 34.965H27.972V38.4615H3.4965C1.55594 38.4615 0 36.8881 0 34.965V13.986H3.4965V34.965Z" fill="#B85D00"/>
</svg>
