<svg width="20" height="16" viewBox="0 0 20 16" fill="none" xmlns="http://www.w3.org/2000/svg">
<path d="M11.7743 5.25978C12.0634 5.25978 12.3407 5.37061 12.5451 5.56789C12.7496 5.76517 12.8645 6.03274 12.8645 6.31173C12.8645 6.59073 12.7496 6.8583 12.5451 7.05558C12.3407 7.25286 12.0634 7.36369 11.7743 7.36369C11.4851 7.36369 11.2078 7.25286 11.0034 7.05558C10.7989 6.8583 10.684 6.59073 10.684 6.31173C10.684 6.03274 10.7989 5.76517 11.0034 5.56789C11.2078 5.37061 11.4851 5.25978 11.7743 5.25978ZM7.41342 5.25978C7.70256 5.25978 7.97986 5.37061 8.18431 5.56789C8.38877 5.76517 8.50363 6.03274 8.50363 6.31173C8.50363 6.59073 8.38877 6.8583 8.18431 7.05558C7.97986 7.25286 7.70256 7.36369 7.41342 7.36369C7.12428 7.36369 6.84698 7.25286 6.64252 7.05558C6.43807 6.8583 6.32321 6.59073 6.32321 6.31173C6.32321 6.03274 6.43807 5.76517 6.64252 5.56789C6.84698 5.37061 7.12428 5.25978 7.41342 5.25978ZM5.66909 9.25721H13.5186C12.8557 10.7468 11.3382 11.7819 9.59384 11.7819C7.8495 11.7819 6.33193 10.7468 5.66909 9.25721ZM0 7.57408C0 6.05085 1.0466 4.76326 2.4944 4.35089C3.7416 1.7757 6.45403 0 9.59384 0C12.7336 0 15.4461 1.7757 16.702 4.35089C18.1411 4.76326 19.1877 6.05085 19.1877 7.57408C19.1877 9.09731 18.1411 10.3849 16.702 10.7973C15.4461 13.3725 12.7336 15.1482 9.59384 15.1482C6.45403 15.1482 3.7416 13.3725 2.4944 10.7973C1.0466 10.3849 0 9.09731 0 7.57408ZM9.59384 1.68313C6.82034 1.68313 4.48294 3.46725 3.73287 5.89095H3.48867C3.02604 5.89095 2.58236 6.06828 2.25524 6.38393C1.92811 6.69958 1.74433 7.12769 1.74433 7.57408C1.74433 8.02047 1.92811 8.44858 2.25524 8.76423C2.58236 9.07988 3.02604 9.25721 3.48867 9.25721H3.73287C4.48294 11.6809 6.82034 13.465 9.59384 13.465C12.3673 13.465 14.7047 11.6809 15.4548 9.25721H15.699C16.1616 9.25721 16.6053 9.07988 16.9324 8.76423C17.2596 8.44858 17.4433 8.02047 17.4433 7.57408C17.4433 7.12769 17.2596 6.69958 16.9324 6.38393C16.6053 6.06828 16.1616 5.89095 15.699 5.89095H15.4548C14.7047 3.46725 12.3673 1.68313 9.59384 1.68313Z" fill="#FF8100"/>
</svg>
