<svg width="24" height="24" viewBox="0 0 24 24" fill="none" xmlns="http://www.w3.org/2000/svg">
<path d="M11.6 7.2C12.8648 7.2 14.0779 7.70571 14.9723 8.60589C15.8666 9.50606 16.3691 10.727 16.3691 12C16.3691 13.273 15.8666 14.4939 14.9723 15.3941C14.0779 16.2943 12.8648 16.8 11.6 16.8C10.3352 16.8 9.12212 16.2943 8.22775 15.3941C7.33337 14.4939 6.83092 13.273 6.83092 12C6.83092 10.727 7.33337 9.50606 8.22775 8.60589C9.12212 7.70571 10.3352 7.2 11.6 7.2ZM11.6 9.6C10.9676 9.6 10.3611 9.85286 9.91387 10.3029C9.46669 10.753 9.21546 11.3635 9.21546 12C9.21546 12.6365 9.46669 13.247 9.91387 13.6971C10.3611 14.1471 10.9676 14.4 11.6 14.4C12.2324 14.4 12.8389 14.1471 13.2861 13.6971C13.7333 13.247 13.9845 12.6365 13.9845 12C13.9845 11.3635 13.7333 10.753 13.2861 10.3029C12.8389 9.85286 12.2324 9.6 11.6 9.6ZM9.21546 24C8.91739 24 8.66701 23.784 8.61932 23.496L8.17818 20.316C7.42705 20.016 6.78323 19.608 6.16324 19.128L3.19449 20.34C2.93219 20.436 2.61028 20.34 2.4672 20.076L0.082662 15.924C-0.0723332 15.66 -0.00079681 15.336 0.225735 15.156L2.74143 13.164L2.65797 12L2.74143 10.8L0.225735 8.844C-0.00079681 8.664 -0.0723332 8.34 0.082662 8.076L2.4672 3.924C2.61028 3.66 2.93219 3.552 3.19449 3.66L6.16324 4.86C6.78323 4.392 7.42705 3.984 8.17818 3.684L8.61932 0.504C8.66701 0.216 8.91739 0 9.21546 0H13.9845C14.2826 0 14.533 0.216 14.5807 0.504L15.0218 3.684C15.7729 3.984 16.4168 4.392 17.0368 4.86L20.0055 3.66C20.2678 3.552 20.5897 3.66 20.7328 3.924L23.1173 8.076C23.2723 8.34 23.2008 8.664 22.9743 8.844L20.4586 10.8L20.542 12L20.4586 13.2L22.9743 15.156C23.2008 15.336 23.2723 15.66 23.1173 15.924L20.7328 20.076C20.5897 20.34 20.2678 20.448 20.0055 20.34L17.0368 19.14C16.4168 19.608 15.7729 20.016 15.0218 20.316L14.5807 23.496C14.533 23.784 14.2826 24 13.9845 24H9.21546ZM10.7058 2.4L10.2647 5.532C8.83393 5.832 7.57012 6.6 6.65207 7.668L3.7787 6.42L2.8845 7.98L5.40019 9.84C4.92328 11.244 4.92328 12.768 5.40019 14.16L2.87258 16.032L3.76678 17.592L6.664 16.344C7.58205 17.4 8.83393 18.168 10.2527 18.456L10.6939 21.6H12.5061L12.9473 18.468C14.3661 18.168 15.618 17.4 16.536 16.344L19.4332 17.592L20.3274 16.032L17.7998 14.172C18.2767 12.768 18.2767 11.244 17.7998 9.84L20.3155 7.98L19.4213 6.42L16.5479 7.668C15.6299 6.6 14.3661 5.832 12.9353 5.544L12.4942 2.4H10.7058Z" fill="black" fill-opacity="0.65"/>
<path d="M9.21582 0.138672H13.9844C14.214 0.138672 14.4066 0.305207 14.4434 0.526367L14.8848 3.70312L14.8955 3.7832L14.9707 3.8125C15.7065 4.10639 16.3392 4.50726 16.9531 4.9707L17.0156 5.01855L17.0889 4.98828L20.0576 3.78906L20.0586 3.78809C20.2307 3.71739 20.4406 3.77092 20.5635 3.91992L20.6123 3.99316L22.9971 8.14551L22.998 8.14648C23.1163 8.34836 23.0621 8.59583 22.8887 8.73438L20.373 10.6904L20.3145 10.7354L20.3203 10.8096L20.4023 12L20.3203 13.1904L20.3145 13.2646L20.373 13.3096L22.8887 15.2656C23.0621 15.4042 23.1163 15.6516 22.998 15.8535L22.9971 15.8545L20.6123 20.0068L20.5635 20.0801C20.4406 20.2291 20.2307 20.2826 20.0586 20.2119L20.0576 20.2109L17.0889 19.0117L17.0156 18.9814L16.9531 19.0293C16.3392 19.4927 15.7065 19.8936 14.9707 20.1875L14.8955 20.2168L14.8848 20.2969L14.4434 23.4736C14.4066 23.6948 14.214 23.8613 13.9844 23.8613H9.21582C8.98715 23.8613 8.79483 23.6963 8.75684 23.4766L8.31543 20.2969L8.30469 20.2168L8.22949 20.1875L7.95801 20.0723C7.33579 19.7923 6.78445 19.4338 6.24805 19.0186L6.18457 18.9688L6.11035 18.999L3.14648 20.21C2.94167 20.2847 2.69549 20.2065 2.58887 20.0098L2.58789 20.0068L0.203125 15.8545L0.202148 15.8535C0.0835716 15.6513 0.138294 15.4031 0.3125 15.2646L0.311523 15.2637L2.82715 13.2725L2.88477 13.2275L2.87988 13.1543L2.79688 11.999L2.87988 10.8096L2.88477 10.7354L2.82617 10.6904L0.311523 8.73535H0.3125C0.138294 8.59693 0.083571 8.34873 0.202148 8.14648L0.203125 8.14551L2.58789 3.99316L2.58887 3.99023C2.69797 3.78892 2.94472 3.7071 3.1416 3.78809L3.14258 3.78906L6.11133 4.98828L6.18457 5.01855L6.24707 4.9707C6.86103 4.50726 7.4937 4.10638 8.22949 3.8125L8.30469 3.7832L8.31543 3.70312L8.75684 0.523438L8.75586 0.522461C8.79417 0.30313 8.98743 0.138672 9.21582 0.138672ZM10.5684 2.38086L10.1396 5.41797C8.75254 5.73044 7.52471 6.47415 6.61426 7.50098L3.83398 6.29297L3.71973 6.24316L3.6582 6.35059L2.76367 7.91113L2.70215 8.01855L2.80176 8.0918L5.2373 9.8916C4.79328 11.2649 4.79349 12.7445 5.2373 14.1074L2.79004 15.9209L2.69043 15.9941L2.75195 16.1006L3.64648 17.6611L3.70801 17.7686L3.82129 17.7197L6.62695 16.5107C7.53596 17.5253 8.75194 18.2676 10.1279 18.5693L10.5566 21.6191L10.5732 21.7393H12.627L12.6436 21.6191L13.0713 18.5811C14.4471 18.2686 15.6629 17.5256 16.5723 16.5107L19.3779 17.7197L19.4922 17.7686L19.5537 17.6611L20.4482 16.1006L20.5098 15.9932L20.4102 15.9199L17.9619 14.1191C18.4059 12.7452 18.4062 11.2655 17.9619 9.8916L20.3984 8.0918L20.4971 8.01855L20.4355 7.91113L19.542 6.35059L19.4795 6.24316L19.3662 6.29297L16.584 7.5C15.6738 6.47403 14.4467 5.73106 13.0596 5.42969L12.6318 2.38086L12.6152 2.26074H10.585L10.5684 2.38086ZM11.5996 7.33887C12.8273 7.33887 14.0056 7.83006 14.874 8.7041C15.7423 9.57814 16.2305 10.7636 16.2305 12C16.2305 13.2364 15.7423 14.4219 14.874 15.2959C14.0056 16.1699 12.8273 16.6611 11.5996 16.6611C10.372 16.661 9.19449 16.1698 8.32617 15.2959C7.45786 14.4218 6.96973 13.2364 6.96973 12C6.96973 10.7636 7.45786 9.57815 8.32617 8.7041C9.19449 7.83015 10.372 7.33897 11.5996 7.33887ZM11.5996 9.46094C10.9302 9.46104 10.2885 9.72897 9.81543 10.2051C9.3423 10.6813 9.07617 11.3269 9.07617 12C9.07617 12.6731 9.3423 13.3187 9.81543 13.7949C10.2885 14.271 10.9302 14.539 11.5996 14.5391C12.2691 14.5391 12.9116 14.2711 13.3848 13.7949C13.8578 13.3187 14.123 12.673 14.123 12C14.123 11.327 13.8578 10.6813 13.3848 10.2051C12.9116 9.72886 12.2691 9.46094 11.5996 9.46094Z" stroke="#2E7D32" stroke-opacity="0.65" stroke-width="0.277671"/>
</svg>
