<svg width="15" height="15" viewBox="0 0 15 15" fill="none" xmlns="http://www.w3.org/2000/svg">
<path d="M10.7143 0.9C11.2214 0.3 11.8643 0 12.6429 0C13.2929 0 13.8357 0.241463 14.2857 0.731707C14.7357 1.22195 14.9714 1.77805 15 2.41463C15 2.92683 14.7643 3.51951 14.2857 4.21463C13.8071 4.90976 13.3429 5.4878 12.8786 5.96341C12.4143 6.43171 11.6929 7.12683 10.7143 8.04878C9.72143 7.12683 8.99286 6.43171 8.52857 5.96341C8.06429 5.49512 7.59286 4.90976 7.12143 4.21463C6.65 3.51951 6.42857 2.92683 6.42857 2.41463C6.42857 1.74878 6.65714 1.19268 7.12143 0.731707C7.58571 0.270732 8.14286 0.0292683 8.79286 0C9.55714 0 10.1929 0.3 10.7143 0.9ZM15 12.439V13.1707L9.28571 15L4.28571 13.5805V14.6341H0V6.58537H5.69286L10.0929 8.26829C10.8929 8.57561 11.4286 9.36585 11.4286 10.2439H12.8571C14.0429 10.2439 15 11.2244 15 12.439ZM2.85714 13.1707V8.04878H1.42857V13.1707H2.85714ZM13.5 12.1244C13.3857 11.8829 13.1357 11.7073 12.8571 11.7073H9.03571C8.65 11.7073 8.27143 11.6488 7.90714 11.5244L6.20714 10.9463L6.65714 9.5561L8.35714 10.1341C8.57143 10.2073 10 10.2439 10 10.2439C10 9.97317 9.83571 9.73171 9.59286 9.63659L5.43571 8.04878H4.28571V12.0732L9.26429 13.4707L13.5 12.1244Z" fill="#FF8100"/>
</svg>
