<svg width="5" height="5" viewBox="0 0 5 5" fill="none" xmlns="http://www.w3.org/2000/svg">
<path d="M4.44273 0H0.555341C0.247127 0 0 0.247127 0 0.555341V1.66602H0.555341V0.555341H4.44273V4.44273H0.555341V3.33205H0V4.44273C0 4.59002 0.058509 4.73127 0.162656 4.83542C0.266802 4.93956 0.408056 4.99807 0.555341 4.99807H4.44273C4.59002 4.99807 4.73127 4.93956 4.83542 4.83542C4.93956 4.73127 4.99807 4.59002 4.99807 4.44273V0.555341C4.99807 0.247127 4.74817 0 4.44273 0ZM1.96591 3.4931L2.3602 3.88739L3.74855 2.49904L2.3602 1.11068L1.96591 1.5022L2.68508 2.22137H0V2.77671H2.68508L1.96591 3.4931Z" fill="black"/>
</svg>
