<svg width="41" height="39" viewBox="0 0 41 39" fill="none" xmlns="http://www.w3.org/2000/svg">
<path d="M24.0941 26.009L36.4818 38.3967L40.8382 33.9372L28.4504 21.5495L24.0941 26.009ZM31.7745 15.273C30.9693 15.273 30.1021 15.1698 29.4208 14.8807L5.90481 38.2935L1.54846 33.9372L16.8473 18.659L13.1929 14.984L11.7064 16.4292L8.71269 13.5181V19.4229L7.26746 20.8681L0 13.5181L1.44523 12.0729H7.24681L4.35634 9.16174L11.7064 1.8117C14.122 -0.603901 18.0035 -0.603901 20.4191 1.8117L16.0627 6.27128L18.9738 9.16174L17.508 10.6276L21.2036 14.3026L24.9612 10.4212C24.6722 9.73984 24.5483 8.8727 24.5483 8.10879C24.5483 4.04149 27.7691 0.841332 31.7745 0.841332C32.9926 0.841332 34.0662 1.13038 35.0366 1.70847L29.524 7.221L32.621 10.3179L38.1335 4.8054C38.7116 5.77577 39.0006 6.80808 39.0006 8.10879C39.0006 12.0729 35.8005 15.273 31.7745 15.273Z" fill="#B85D00"/>
</svg>
