<svg width="469" height="387" viewBox="0 0 469 387" fill="none" xmlns="http://www.w3.org/2000/svg">
<path d="M240.264 385.719C276.764 386.219 425.764 273.719 410.764 259.219C400.764 249.552 352.764 295.219 335.764 302.219L247.764 338.719C239.264 343.219 230.764 331.719 243.764 326.219L330.264 290.219C340.764 284.719 337.864 269.119 318.264 272.719L237.264 292.719C230.264 294.219 220.764 294.919 212.764 290.719C192.764 280.219 171.764 265.219 159.264 262.219C135.264 255.719 93.7641 260.719 71.2641 279.719C102.764 315.719 190.264 376.219 227.264 385.219C229.264 385.719 238.502 385.719 240.264 385.719Z" fill="#F57C00" stroke="#877300"/>
<path d="M154.264 249.219C108.664 246.019 91.7642 250.719 61.2642 270.219C-111.236 57.7188 129.42 -67.7812 216.764 39.7188C227.164 52.5187 241.514 52.2188 252.764 39.7188C342.764 -60.2812 561.264 47.2188 423.764 253.219C405.364 222.819 374.264 266.719 347.264 281.219C346.264 274.719 347.764 272.219 333.264 260.719C318.764 249.219 241.264 285.219 224.764 280.719C211.236 277.029 185.764 251.429 154.264 249.219Z" fill="#2E7D32" stroke="#247328"/>
</svg>
