<svg width="14" height="11" viewBox="0 0 14 11" fill="none" xmlns="http://www.w3.org/2000/svg">
<path d="M8.82955 6.30682C7.14563 6.30682 3.78409 7.14563 3.78409 8.82955V10.0909H13.875V8.82955C13.875 7.14563 10.5135 6.30682 8.82955 6.30682ZM3.15341 3.78409V1.89205H1.89205V3.78409H0V5.04545H1.89205V6.9375H3.15341V5.04545H5.04545V3.78409H3.15341ZM8.82955 5.04545C9.49861 5.04545 10.1403 4.77967 10.6134 4.30657C11.0865 3.83346 11.3523 3.1918 11.3523 2.52273C11.3523 1.85366 11.0865 1.21199 10.6134 0.73889C10.1403 0.265786 9.49861 0 8.82955 0C8.16048 0 7.51881 0.265786 7.04571 0.73889C6.5726 1.21199 6.30682 1.85366 6.30682 2.52273C6.30682 3.1918 6.5726 3.83346 7.04571 4.30657C7.51881 4.77967 8.16048 5.04545 8.82955 5.04545Z" fill="black"/>
</svg>
