<svg width="81" height="37" viewBox="0 0 81 37" fill="none" xmlns="http://www.w3.org/2000/svg">
<path d="M1.87755e-06 14.1V-4.76837e-07H6.44C7.49334 -4.76837e-07 8.38667 0.18 9.12 0.54C9.85334 0.9 10.4067 1.41333 10.78 2.08C11.1667 2.74667 11.36 3.55333 11.36 4.5C11.36 5.44667 11.1667 6.26 10.78 6.94C10.4067 7.60667 9.85334 8.12 9.12 8.48C8.38667 8.84 7.49334 9.02 6.44 9.02H3.1V14.1H1.87755e-06ZM3.1 6.62H5.92C6.72 6.62 7.32667 6.44 7.74 6.08C8.16667 5.72 8.38 5.19333 8.38 4.5C8.38 3.80667 8.16667 3.28667 7.74 2.94C7.32667 2.59333 6.72 2.42 5.92 2.42H3.1V6.62ZM13.9998 17.7L16.1598 12.96V14.2L11.8398 4.28H15.0198L17.7998 11.32H17.1598L20.0198 4.28H23.0198L17.0798 17.7H13.9998ZM24.2164 14.1V4.28H27.2364V7.94H28.4164L31.0364 4.28H34.2564L30.7164 9.3L30.1164 8.32C30.4764 8.36 30.8031 8.46667 31.0964 8.64C31.3897 8.81333 31.6564 9.04 31.8964 9.32C32.1364 9.6 32.3631 9.92667 32.5764 10.3L34.6564 14.1H31.4364L29.8564 11.26C29.7231 10.9933 29.5831 10.7933 29.4364 10.66C29.2897 10.5133 29.1231 10.4133 28.9364 10.36C28.7631 10.2933 28.5564 10.26 28.3164 10.26H27.2364V14.1H24.2164ZM39.1184 14.32C38.3984 14.32 37.7518 14.18 37.1784 13.9C36.6051 13.62 36.1584 13.24 35.8384 12.76C35.5184 12.28 35.3584 11.74 35.3584 11.14C35.3584 10.42 35.5451 9.85333 35.9184 9.44C36.2918 9.01333 36.8984 8.71333 37.7384 8.54C38.5784 8.35333 39.6918 8.26 41.0784 8.26H42.1384V9.82H41.0984C40.5784 9.82 40.1384 9.84 39.7784 9.88C39.4318 9.92 39.1451 9.99333 38.9184 10.1C38.6918 10.1933 38.5251 10.3133 38.4184 10.46C38.3251 10.6067 38.2784 10.7933 38.2784 11.02C38.2784 11.3933 38.4051 11.7 38.6584 11.94C38.9251 12.18 39.3051 12.3 39.7984 12.3C40.1851 12.3 40.5251 12.2133 40.8184 12.04C41.1251 11.8533 41.3651 11.6067 41.5384 11.3C41.7118 10.98 41.7984 10.62 41.7984 10.22V7.92C41.7984 7.33333 41.6651 6.92 41.3984 6.68C41.1318 6.42667 40.6784 6.3 40.0384 6.3C39.5051 6.3 38.9384 6.38667 38.3384 6.56C37.7518 6.72 37.1651 6.96667 36.5784 7.3L35.7584 5.28C36.1051 5.04 36.5251 4.83333 37.0184 4.66C37.5251 4.47333 38.0518 4.33333 38.5984 4.24C39.1451 4.13333 39.6651 4.08 40.1584 4.08C41.1851 4.08 42.0251 4.23333 42.6784 4.54C43.3451 4.83333 43.8451 5.29333 44.1784 5.92C44.5118 6.53333 44.6784 7.32667 44.6784 8.3V14.1H41.8584V12.12H41.9984C41.9184 12.5733 41.7451 12.9667 41.4784 13.3C41.2251 13.62 40.8984 13.8733 40.4984 14.06C40.0984 14.2333 39.6384 14.32 39.1184 14.32ZM1.87755e-06 34.1V20H12.62V34.1H9.52V22.56H3.1V34.1H1.87755e-06ZM20.0888 34.32C19.0354 34.32 18.1154 34.1133 17.3288 33.7C16.5554 33.2867 15.9554 32.6933 15.5288 31.92C15.1021 31.1467 14.8888 30.2333 14.8888 29.18C14.8888 28.1267 15.1021 27.22 15.5288 26.46C15.9554 25.7 16.5554 25.1133 17.3288 24.7C18.1154 24.2867 19.0354 24.08 20.0888 24.08C21.1421 24.08 22.0554 24.2867 22.8288 24.7C23.6154 25.1133 24.2221 25.7067 24.6488 26.48C25.0888 27.24 25.3088 28.14 25.3088 29.18C25.3088 30.2333 25.0888 31.1467 24.6488 31.92C24.2221 32.6933 23.6154 33.2867 22.8288 33.7C22.0554 34.1133 21.1421 34.32 20.0888 34.32ZM20.0888 32.06C20.7421 32.06 21.2688 31.8267 21.6688 31.36C22.0688 30.88 22.2688 30.1533 22.2688 29.18C22.2688 28.2067 22.0688 27.4933 21.6688 27.04C21.2688 26.5733 20.7421 26.34 20.0888 26.34C19.4488 26.34 18.9288 26.5733 18.5288 27.04C18.1288 27.4933 17.9288 28.2067 17.9288 29.18C17.9288 30.1533 18.1288 30.88 18.5288 31.36C18.9288 31.8267 19.4488 32.06 20.0888 32.06ZM27.4391 34.1V24.28H29.9191L33.1391 29.64L36.3391 24.28H38.8191V34.1H36.1591V27.78H36.6591L33.8191 32.48H32.4391L29.5791 27.78H30.0791V34.1H27.4391ZM46.163 34.32C45.1096 34.32 44.1896 34.1133 43.403 33.7C42.6296 33.2867 42.0296 32.6933 41.603 31.92C41.1763 31.1467 40.963 30.2333 40.963 29.18C40.963 28.1267 41.1763 27.22 41.603 26.46C42.0296 25.7 42.6296 25.1133 43.403 24.7C44.1896 24.2867 45.1096 24.08 46.163 24.08C47.2163 24.08 48.1296 24.2867 48.903 24.7C49.6896 25.1133 50.2963 25.7067 50.723 26.48C51.163 27.24 51.383 28.14 51.383 29.18C51.383 30.2333 51.163 31.1467 50.723 31.92C50.2963 32.6933 49.6896 33.2867 48.903 33.7C48.1296 34.1133 47.2163 34.32 46.163 34.32ZM46.163 32.06C46.8163 32.06 47.343 31.8267 47.743 31.36C48.143 30.88 48.343 30.1533 48.343 29.18C48.343 28.2067 48.143 27.4933 47.743 27.04C47.343 26.5733 46.8163 26.34 46.163 26.34C45.523 26.34 45.003 26.5733 44.603 27.04C44.203 27.4933 44.003 28.2067 44.003 29.18C44.003 30.1533 44.203 30.88 44.603 31.36C45.003 31.8267 45.523 32.06 46.163 32.06ZM66.9733 36.7V34.1H53.5133V24.28H56.3333V31.76H59.2933V24.28H62.1133V31.76H65.0733V24.28H67.8933V31.76H69.5333V36.7H66.9733ZM71.1891 34.1V24.28H73.9091V30.94H73.3691L78.3891 24.28H80.8691V34.1H78.1491V27.44H78.7091L73.6691 34.1H71.1891Z" fill="#2E7D32"/>
</svg>
