<svg width="39" height="39" viewBox="0 0 39 39" fill="none" xmlns="http://www.w3.org/2000/svg">
<path d="M21.565 38.4626L18.4598 31.1663C21.4507 30.0614 24.2511 28.5755 26.8419 26.8419L21.565 38.4626ZM7.29628 20.0028L0 16.8976L11.6207 11.6207C9.88712 14.2115 8.4012 17.0119 7.29628 20.0028ZM33.1666 3.81007C33.7 3.81007 34.1763 3.81007 34.5764 3.90532C34.9002 6.55331 34.5382 12.0017 28.2897 18.2502C25.0512 21.5078 21.184 24.0034 16.8405 25.6608L12.7447 21.6602C14.4973 17.2596 16.9929 13.3924 20.2124 10.1729C25.4703 4.91499 30.1567 3.81007 33.1666 3.81007ZM33.1666 0C29.3947 0 23.6796 1.31447 17.5073 7.48678C13.3352 11.6588 10.8396 16.2499 9.22036 20.2696C8.68695 21.6983 9.04891 23.2605 10.0967 24.3273L14.1544 28.3659C14.8783 29.0899 15.8499 29.528 16.8595 29.528C17.2977 29.528 17.7549 29.4137 18.1931 29.2423C22.2698 27.6801 26.8038 25.1274 30.9758 20.9554C41.7583 10.1729 37.7197 0.742963 37.7197 0.742963C37.7197 0.742963 35.9861 0 33.1666 0ZM24.2511 14.2115C22.7651 12.7256 22.7651 10.3062 24.2511 8.8203C25.737 7.33438 28.1564 7.33438 29.6423 8.8203C31.1092 10.3062 31.1282 12.7256 29.6423 14.2115C28.1564 15.6975 25.737 15.6975 24.2511 14.2115ZM13.4686 27.6801L10.7825 24.994L13.4686 27.6801ZM8.4393 38.1007L15.3736 31.1663C14.7259 30.9949 14.0972 30.7091 13.5257 30.3091L5.7532 38.1007H8.4393ZM0.361956 38.1007H3.04805L12.1351 29.0327L9.42991 26.3466L0.361956 35.4146V38.1007ZM0.361956 32.7094L8.15354 24.9369C7.75349 24.3654 7.46773 23.7558 7.29628 23.089L0.361956 30.0233V32.7094Z" fill="#B85D00"/>
</svg>
